<svg viewBox="125.73469387755102 93.375 224.0816326530612 336.15000000000003" fill="none" xmlns="http://www.w3.org/2000/svg" xmlns:xlink="http://www.w3.org/1999/xlink" xmlns:blush="http://design.blush" overflow="visible" width="224.0816326530612px" height="336.15000000000003px"><g id="Master/Stickers/Painting Easel" blush:has-customizable-colors="true" blush:viewBox="126.9795918367347 92.13 219.10204081632645 338.64000000000004" blush:i="0"><g id="Painting Easel" blush:i="0.0"><path id="Fill 96" fill-rule="evenodd" clip-rule="evenodd" d="M331.063 99.2752C293.976 98.5179 256.888 97.7606 219.803 97.0033C215.21 96.91 211.898 98.8334 209.857 101.663C207.23 103.365 205.174 106.072 203.882 109.243C184.851 155.987 165.821 202.731 146.789 249.474C143.346 257.932 151.851 265.122 159.176 265.789L293.168 277.968C298.315 278.435 304.62 273.663 305.553 268.506C314.929 216.775 327.586 165.703 343.45 115.59C346.035 107.418 339.106 99.4397 331.063 99.2752" fill="white" blush:i="0.0.0"/><path id="Fill 98" fill-rule="evenodd" clip-rule="evenodd" d="M201.484 275C201.484 275 133.745 409.41 134.001 417.62C134.257 425.828 161.975 416.506 161.975 416.506L204 275H201.484Z" fill="#A48661" blush:i="0.0.1"/><path id="Fill 100" fill-rule="evenodd" clip-rule="evenodd" d="M254.819 280.885C254.819 280.885 252.66 414.003 246 423.148L263.058 427L264 304.103L258.994 280L254.819 280.885Z" fill="#A48661" blush:i="0.0.2"/><path id="Fill 102" fill-rule="evenodd" clip-rule="evenodd" d="M281 281.348L299.162 363.732L308 366L285.607 281" fill="#A48661" blush:i="0.0.3"/><g id="Group 106" blush:i="0.0.4"><mask id="mask00e6bf71b-fce2-44fa-b8dd-716fb56036d7" mask-type="alpha" maskUnits="userSpaceOnUse" x="128" y="94" width="218" height="335" blush:i="0.0.4.0"><path id="Clip 105" fill-rule="evenodd" clip-rule="evenodd" d="M128.332 94.1138H345.571V428.775H128.332V94.1138Z" fill="white" blush:i="0.0.4.0.0"/></mask><g mask="url(#mask00e6bf71b-fce2-44fa-b8dd-716fb56036d7)" blush:i="0.0.4.1"><path id="Fill 104" fill-rule="evenodd" clip-rule="evenodd" d="M246.467 97.4854L246.71 97.4266L246.53 97.3163L246.467 97.4854ZM159.905 217.134C159.914 217.037 159.943 216.935 159.919 216.846C159.913 216.818 159.767 216.826 159.686 216.818C159.68 216.916 159.654 217.019 159.677 217.108C159.685 217.134 159.826 217.125 159.905 217.134V217.134ZM334.648 159.028C334.696 158.96 334.778 158.892 334.778 158.823C334.779 158.754 334.697 158.683 334.652 158.615C334.605 158.682 334.521 158.752 334.521 158.819C334.521 158.889 334.603 158.959 334.648 159.028V159.028ZM147.591 376.013C147.323 376.012 147.269 376.122 147.455 376.322C147.479 376.346 147.604 376.276 147.684 376.251C147.652 376.172 147.621 376.092 147.591 376.013V376.013ZM231.087 97.4903L231.37 97.418L231.159 97.2758L231.087 97.4903ZM254.692 296.855C254.772 296.822 254.891 296.808 254.921 296.749C254.95 296.698 254.88 296.594 254.854 296.514C254.772 296.546 254.656 296.559 254.623 296.619C254.596 296.671 254.664 296.775 254.692 296.855V296.855ZM253.403 335.923C253.354 335.846 253.304 335.771 253.255 335.695L253.251 336.144C253.301 336.072 253.353 335.997 253.403 335.923V335.923ZM147.142 256.166C147.142 256.046 147.187 255.9 147.135 255.85C146.985 255.705 146.882 255.814 146.905 256.12C146.912 256.214 146.971 256.303 147.007 256.395C147.056 256.313 147.105 256.231 147.142 256.166V256.166ZM331.602 165.013C331.534 164.933 331.465 164.854 331.399 164.773C331.356 164.865 331.278 164.956 331.278 165.05C331.278 165.355 331.421 165.455 331.639 165.307C331.676 165.282 331.616 165.116 331.602 165.013V165.013ZM330.912 166.972C330.805 167.02 330.645 167.052 330.64 167.103C330.614 167.293 330.641 167.489 330.647 167.682C330.736 167.635 330.888 167.6 330.899 167.537C330.934 167.357 330.912 167.166 330.912 166.972V166.972ZM330.043 170.942C330.067 170.754 330.098 170.57 330.103 170.386C330.105 170.346 330.009 170.301 329.958 170.258C329.927 170.443 329.888 170.627 329.877 170.812C329.875 170.85 329.98 170.894 330.043 170.942V170.942ZM329.236 173.524C329.214 173.731 329.186 173.937 329.182 174.142C329.181 174.163 329.324 174.187 329.402 174.209C329.425 174.004 329.457 173.799 329.464 173.593C329.465 173.574 329.321 173.548 329.236 173.524V173.524ZM239.878 97.4254C239.794 97.3849 239.712 97.3236 239.625 97.3089C239.53 97.2955 239.377 97.2893 239.341 97.3432C239.218 97.5185 239.334 97.6116 239.626 97.5565C239.714 97.5393 239.795 97.4707 239.878 97.4254V97.4254ZM311.273 280.992C311.251 280.701 311.442 280.272 310.914 280.29C310.77 280.295 310.526 280.581 310.519 280.744C310.508 281.035 310.575 281.536 310.731 281.588C311.145 281.726 311.203 281.308 311.273 280.992V280.992ZM192.442 269.426C193.049 269.349 193.655 269.271 194.46 269.169C193.674 268.779 193.08 268.779 192.442 269.426V269.426ZM144.045 262.473C145.287 262.522 145.074 261.715 145.127 260.868C144.322 261.263 144.075 261.794 144.045 262.473V262.473ZM253.693 344.488C253.591 342.892 253.518 341.711 253.443 340.531C252.875 341.765 252.31 342.997 253.693 344.488V344.488ZM253.954 322.741C254.299 324.606 252.684 328.207 253.231 331.824C253.473 331.828 253.714 331.83 253.954 331.834V322.741ZM216.133 99.0785C216.151 98.8113 216.166 98.5442 216.182 98.277L215.939 98.3114C216.018 98.5577 216.098 98.804 216.179 99.0503C214.114 100.609 211.879 99.6397 209.762 99.342C207.702 99.0503 206.659 99.6165 206.23 101.695C205.736 104.083 204.991 106.407 204.065 108.685C199.884 118.97 196.718 129.617 193.028 140.077C191.078 145.604 189.733 151.363 186.795 156.514L186.812 156.498C185.03 164.307 181.475 171.48 178.777 178.96C176.073 186.46 173.358 193.957 170.62 201.444C168.909 206.129 166.967 210.737 165.461 215.484C163.882 220.462 160.954 224.901 159.949 230.103C159.321 233.359 158.586 236.631 157.491 239.752C155.002 246.843 152.137 253.795 149.999 261.021C149.38 263.117 149.757 263.962 151.815 264.157C154.888 264.451 157.891 265.103 161.063 264.781C164.688 264.413 168.378 264.659 172.04 264.69C172.991 264.699 173.947 264.884 174.897 266.321C170.153 266.516 165.81 265.242 161.668 267.238L188.556 268.806C184.716 268.282 181.041 267.34 177.298 266.423C177.637 265.484 178.064 265.447 178.509 265.531C188.204 267.37 198.206 267.264 207.733 270.172C208.47 270.396 209.255 270.518 210.027 270.567C222.78 271.385 235.388 273.444 248.062 274.948C256.439 275.942 264.845 276.762 273.172 278.087C281.406 279.397 289.726 279.883 297.967 281.099C302.215 281.725 302.422 281.416 303.05 277.115C305.577 259.843 310.876 243.161 313.769 225.958C315.148 217.754 316.869 209.534 319.342 201.602C324.751 184.246 327.125 166.32 330.079 148.504C332.491 133.939 334.987 119.397 338.248 104.996C338.768 102.702 338.191 101.591 335.896 101.45C330.803 101.136 325.763 100.277 320.622 100.403C313.739 100.571 306.847 100.623 299.97 99.913C297.431 99.652 294.771 98.8322 292.393 99.1765C286.527 100.025 280.67 100 274.837 99.69C270.147 99.4425 265.563 99.3579 260.943 100.339C259.127 100.726 257.163 100.353 255.293 100.56C253.785 100.728 253.562 99.7562 253.278 98.6778C251.649 99.6802 250.007 100.4 248.206 100.467C241.213 100.724 234.214 101.344 227.223 100.892C223.498 100.651 219.645 100.797 216.133 99.0785V99.0785ZM194.824 301.46L194.789 301.494C195.61 297.785 197.355 294.42 198.753 290.928C200.807 285.799 202.987 280.721 204.328 275.325C202.255 274.223 201.369 275.068 200.489 276.704C197.493 282.263 195.253 288.164 192.255 293.749C185.667 306.028 178.775 318.171 173.026 330.885C170.23 337.07 166.754 342.881 163.726 348.932C156.712 362.952 151.046 377.599 143.986 391.599C140.129 399.254 137.697 407.517 133.985 415.236C133.668 415.895 133.117 416.588 133.842 417.488C136.295 417.624 138.745 418.485 141.328 418.349C143.985 418.209 146.638 418.246 149.291 417.74C151.673 417.287 154.175 416.971 156.564 417.204C158.645 417.407 159.108 416.537 159.337 414.916C160.761 404.864 164.298 395.325 166.481 385.46C168.312 377.193 171.274 369.284 173.856 361.25C178.103 348.038 181.562 334.58 186.842 321.692C188.113 318.593 189.332 315.398 190.487 312.228C191.803 308.619 192.489 304.678 194.824 301.46V301.46ZM256.218 302.127C257.135 305.234 256.924 308.476 256.855 311.602C256.601 323.198 256.022 334.787 255.475 346.375C255.413 347.712 255.733 349.336 254.22 350.275L254.249 350.245C253.651 352.279 254.801 354.249 254.67 356.111C254.472 358.95 254.049 361.774 253.932 364.652C253.737 369.335 252.986 373.974 252.177 378.612C251.267 383.829 251.043 389.161 250.377 394.425C249.163 404.014 247.881 413.596 246.537 423.166C246.277 425.018 246.968 425.478 248.645 425.62C251.741 425.886 254.826 426.302 257.898 426.775C261.038 427.261 261.272 427.274 261.684 423.955C262.657 416.115 262.487 408.204 262.671 400.333C263.018 385.679 262.778 371.012 262.87 356.35C262.972 340.127 264.629 323.93 264.024 307.704C263.731 299.859 263.506 291.927 260.985 284.328C259.713 280.494 259.645 280.408 255.169 281.172C255.743 285.667 256.267 290.167 256.369 294.725C256.416 296.777 255.729 298.801 256.244 300.84L256.206 300.803C256.223 301.256 256.239 301.71 256.254 302.163L256.218 302.127ZM307.65 366.264L307.611 366.301C307.432 365.095 307.477 363.804 307.041 362.7C304.172 355.447 302.655 347.793 300.329 340.38C297.91 332.669 296.096 324.773 294.263 316.888C292.327 308.564 289.811 300.374 287.778 292.07C287.146 289.481 286.398 286.935 285.702 284.37C285.223 282.609 283.776 282.777 282.443 282.919C280.724 283.103 281.078 284.387 281.274 285.455C282.189 290.475 283.064 295.502 284.106 300.495C285.945 309.294 288.006 318.048 289.77 326.861C292.034 338.176 294.013 349.555 297.585 360.555C299.556 366.627 300.546 367.139 307.02 366.473C307.235 366.452 307.44 366.335 307.65 366.264V366.264ZM309.005 266.107C307.017 269.202 307.866 272.932 306.738 276.217C306.134 277.976 305.72 279.698 307.119 281.963C308.252 276.338 308.554 271.201 308.966 266.079C309.628 265.004 309.679 263.863 309.337 262.577C308.596 263.766 308.766 264.933 309.005 266.107V266.107ZM255.557 98.3751C256.592 99.0528 257.687 99.0062 259.256 98.6814C257.719 98.5663 256.626 98.4854 255.534 98.4045C255.475 97.2244 257.263 96.9474 256.903 95.483C255.051 94.934 253.38 95.5173 251.598 96.0345C252.457 98.0369 254.754 96.8163 255.557 98.3751V98.3751ZM203.515 101.083C201.12 104.056 200.601 107.685 199.889 111.246C201.671 108.05 202.857 104.648 203.478 101.053C203.541 100.984 203.617 100.924 203.661 100.847C203.694 100.789 203.688 100.71 203.699 100.64C203.638 100.787 203.576 100.935 203.515 101.083V101.083ZM212.835 96.3862C211.613 96.6729 210.263 95.5774 208.736 96.6264C210.418 97.2722 211.637 97.0528 212.806 96.3494C213.061 96.1815 213.559 96.5504 213.628 95.9744C213.363 96.1104 213.1 96.2489 212.835 96.3862V96.3862ZM189.51 133.82C188.778 134.606 188.076 135.402 188.428 136.682C189.399 135.891 189.325 134.803 189.47 133.793C189.592 133.506 190.228 133.226 189.483 132.924C189.492 133.223 189.501 133.521 189.51 133.82V133.82ZM328.304 178.521C328.596 178.052 329.184 177.634 328.498 176.799C328.432 177.511 328.383 178.028 328.335 178.546C328.294 178.857 327.626 179.066 328.185 179.474C328.225 179.157 328.265 178.84 328.304 178.521V178.521ZM150.76 369.649C150.675 369.785 150.588 369.921 150.502 370.056C150.579 369.913 150.659 369.769 150.737 369.626L150.76 369.649ZM149.428 372.327C149.357 372.388 149.274 372.441 149.221 372.515C149.183 372.569 149.188 372.651 149.174 372.722C149.247 372.579 149.321 372.436 149.394 372.294L149.428 372.327ZM146.754 378.336C146.537 378.785 146.321 379.233 146.103 379.682C144.933 380.015 145.397 380.915 145.418 381.66L145.405 381.645C145.625 380.981 145.847 380.317 146.066 379.651L146.727 378.309L146.754 378.336ZM254.906 314.158C254.906 314.158 254.881 314.181 254.88 314.181C254.822 314.096 254.763 314.01 254.706 313.924C254.772 314.001 254.838 314.081 254.906 314.158V314.158ZM248.895 373.658C247.257 370.034 248.739 366.414 249.098 362.853C250.021 353.686 250.678 344.563 250.353 335.312C250.128 328.921 250.92 322.446 251.792 316.08C252.596 310.215 252.156 304.351 252.501 298.494C252.786 293.657 252.381 288.774 252.199 283.914C252.049 279.938 251.883 279.975 248.029 279.505C241.436 278.698 234.714 278.69 228.327 276.508C228.118 276.437 227.883 276.32 227.684 276.354C221.997 277.334 216.414 276.116 210.8 275.564C209.189 275.404 208.338 276.35 207.791 277.684C205.304 283.745 202.526 289.704 200.425 295.895C197.361 304.924 194.778 314.103 191.114 322.946C189.916 325.833 188.834 328.868 187.945 331.919C187.82 332.345 187.759 332.813 187.54 333.184C180.473 345.102 178.065 358.67 173.896 371.616C170.112 383.364 166.707 395.221 163.725 407.196C162.974 410.212 162.575 413.313 162.011 416.374C161.308 420.186 159.19 421.79 155.382 421.058C151.832 420.377 148.311 420.465 144.769 420.873C140.443 421.371 136.107 421.001 131.776 421.075C130.326 421.101 129.197 420.548 128.332 418.997C130.467 417.648 131.074 415.322 131.931 413.071C136.402 401.342 139.843 389.25 144.584 377.613C147.659 370.061 152.154 363.31 156.1 356.249L156.072 356.274C156.968 352.552 159.123 349.384 160.716 345.979C165.279 336.227 169.903 326.496 174.824 316.923C177.081 312.532 178.443 307.783 180.858 303.476C185.689 294.855 190.423 286.178 195.18 277.514C197.175 273.879 196.591 272.663 192.474 272.74C180.422 272.966 168.584 271.229 156.749 269.278C153.155 268.685 149.48 268.583 145.879 268.016C144.714 267.832 142.722 268.359 142.716 266.055C143.243 265.831 143.994 266.255 144.393 265.465C143.499 264.87 142.978 265.09 142.749 266.091C140.467 265.809 140.642 264.217 140.901 262.596C141.767 257.206 143.51 252.041 145.229 246.904C151.322 228.706 158.493 210.889 164.461 192.638C167.015 184.831 170.367 177.3 173.113 169.547C175.9 161.68 179.628 154.193 183.001 146.562C185.095 141.826 186.277 136.694 188.163 131.853C189.87 127.467 190.711 122.635 194.167 119.061C194.184 119.144 194.189 119.232 194.221 119.311C194.244 119.371 194.298 119.42 194.339 119.474C194.271 119.346 194.201 119.218 194.133 119.09C193.968 114.384 196.14 110.336 197.946 106.24C199.376 102.996 201.284 99.9633 202.999 96.8494C203.394 96.1337 203.624 94.9426 204.867 95.934C205.14 96.1521 205.614 96.3874 205.711 96.1288C206.819 93.1546 209.028 94.9646 210.779 94.9426C223.532 94.7784 236.285 95.5957 249.044 94.4242C257.333 93.6644 265.633 94.4487 273.94 95.1779C282.558 95.9327 291.25 95.8421 299.911 96.1129C310.227 96.4352 320.576 95.8788 330.85 97.2979C331.949 97.4499 333.085 97.641 334.169 97.5173C339.101 96.9548 341.825 100.591 345.09 103.173C345.932 103.837 345.459 104.82 345.244 105.674C342.533 116.471 340.534 127.398 339.363 138.47C338.64 145.321 338.496 152.26 337.001 158.996C335.106 167.537 333.855 176.248 330.992 184.547C328.637 191.376 326.87 198.465 325.86 205.468C324.269 216.472 321.312 227.153 319.479 238.087C317.366 250.688 314.791 263.223 312.962 275.876C312.652 278.022 311.067 280.757 314.345 282.552C315.298 283.074 314.389 284.659 313.272 284.637C310.56 284.585 308.44 285.134 308.029 288.33C306.543 287.54 307.406 285.985 306.308 285.237C304.291 285.308 305.24 288.385 303.164 288.517C301.685 287.882 302.52 286.346 301.871 285.088C298.179 284.937 294.561 283.377 290.675 283.239C289.809 283.207 288.932 282.735 288.328 283.802C287.857 284.634 288.209 285.213 288.681 285.906C290.413 288.461 290.628 291.567 291.455 294.417C294.48 304.845 297.224 315.357 300.017 325.853C303.239 337.976 306.388 350.119 309.61 362.241C310.008 363.741 310.683 365.164 311.18 366.639C311.68 368.123 311.173 368.928 309.556 369.175C305.795 369.746 302.028 369.704 298.254 369.476C296.64 369.378 295.526 368.617 295.305 366.884C294.675 361.91 292.528 357.287 292.002 352.278C291.326 345.845 288.691 339.842 287.822 333.428C286.585 324.293 283.694 315.497 281.966 306.46C280.633 299.487 279.417 292.49 278.311 285.479C278.021 283.639 277.4 282.686 275.48 282.531C272.605 282.301 269.742 281.915 266.876 281.57C265.292 281.378 264.615 281.922 264.802 283.623C264.934 284.812 264.947 285.959 265.251 287.176C266.322 291.459 267.128 295.776 266.566 300.296C266.347 302.053 267.121 303.971 267.621 305.765C267.858 306.62 268.29 307.445 268.194 308.337C267.387 315.832 267.96 323.404 266.921 330.883L266.904 330.867C267.561 333.985 266.897 337.102 266.902 340.221L266.926 340.196C266.875 340.276 266.774 340.359 266.783 340.432C266.802 340.601 266.873 340.765 266.924 340.932L266.903 340.911C267.585 346.316 266.69 351.722 266.941 357.135C267.295 364.771 267.659 372.414 267.671 380.054C267.685 388.238 268.025 396.442 266.779 404.601C266.043 409.421 265.565 414.291 265.205 419.156C265.019 421.654 264.052 423.901 263.466 426.259C263.122 427.644 262.373 429.199 260.199 428.668C255.62 427.548 250.91 428.33 246.275 427.884C243.47 427.613 243.121 427.118 243.609 424.46C244.269 420.863 244.884 417.232 245.133 413.591C245.604 406.746 247.05 400.029 247.028 393.09C247.009 386.606 248.208 380.118 248.87 373.632L248.895 373.658Z" fill="#7C6063" blush:i="0.0.4.1.0"/></g></g><path id="Fill 107" fill-rule="evenodd" clip-rule="evenodd" d="M239.68 294.398C239.612 294.524 239.542 294.65 239.474 294.776C239.419 294.717 239.308 294.641 239.32 294.604C239.363 294.47 239.447 294.35 239.515 294.223C239.571 294.281 239.625 294.34 239.68 294.398" fill="#7C6063" blush:i="0.0.5"/><path id="Fill 109" fill-rule="evenodd" clip-rule="evenodd" d="M266.489 340.22C266.49 340.407 266.491 340.596 266.491 340.783L266.508 340.8C266.509 340.6 266.511 340.401 266.511 340.2L266.489 340.22Z" fill="#7C6063" blush:i="0.0.6"/><path id="Fill 111" fill-rule="evenodd" clip-rule="evenodd" d="M256.516 300.515L256.484 300.485L256.516 300.515Z" fill="#7C6063" blush:i="0.0.7"/></g></g></svg>