<svg viewBox="246.22500000000002 50.50335570469804 445.5499999999999 657.7181208053689" fill="none" xmlns="http://www.w3.org/2000/svg" xmlns:xlink="http://www.w3.org/1999/xlink" xmlns:blush="http://design.blush" overflow="visible" width="445.5499999999999px" height="657.7181208053689px"><g id="Master/Character/Hobbies Outline" blush:has-customizable-colors="true" blush:viewBox="65.66000000000008 -4.222520107238665 806.6800000000002 708.4450402144773" blush:i="0"><g id="Hobbies Outlines" blush:component="Hobbies Outlines" blush:defaultValue="Cooking" blush:width="801" blush:height="700" transform="translate(69 0) scale(1 1)" blush:i="0.0" blush:value="Painting" blush:viewBox="180.22500000000002 59.668192219679554 440.54999999999995 640.7322654462241"><g id="Hobbies Outlines/Painting" blush:viewBox="180.22500000000002 59.668192219679554 440.54999999999995 640.7322654462241" blush:i="0.0.0"><g id="Outlines" blush:i="0.0.0.0"><path id="Fill 1" fill-rule="evenodd" clip-rule="evenodd" d="M618.503 528.92C618.503 496.367 569.187 477.924 545.607 470.951C538.319 468.797 533.335 462.079 533.335 454.48C533.335 448.579 536.347 443.077 541.348 439.945C551.306 433.71 566.967 421.625 566.967 407.278C566.967 389.682 547.108 373.81 515.268 362.588C505.351 359.093 498.692 349.747 498.693 339.232C498.693 332.074 501.848 325.329 507.192 320.568C517.26 311.603 523.009 301.233 523.009 290.183C523.009 256.174 468.548 228.604 401.366 228.604H400.987C369.427 228.604 340.675 234.69 319.057 244.668C294.657 255.93 279.345 272.151 279.345 290.183C279.345 301.233 285.095 311.603 295.161 320.568C297.659 322.793 299.67 325.454 301.113 328.385C302.758 331.727 303.661 335.419 303.661 339.232C303.661 349.747 297.004 359.093 287.086 362.588C255.245 373.81 235.388 389.682 235.388 407.278C235.388 421.625 251.048 433.71 261.006 439.945C266.007 443.077 269.019 448.579 269.019 454.48C269.019 462.079 264.035 468.797 256.747 470.951C233.168 477.924 183.851 496.367 183.851 528.92C183.851 560.471 237.256 587.591 313.733 599.533C336.059 603.02 360.347 605.212 385.852 605.842C390.916 605.968 396.023 606.035 401.177 606.035C407.64 606.035 414.031 605.93 420.351 605.733C445.765 604.945 469.922 602.607 492.071 598.983C566.699 586.772 618.503 559.994 618.503 528.92" fill="#F9751C" blush:i="0.0.0.0.0"/><g id="Group 5" blush:i="0.0.0.0.1"><path id="Fill 3" fill-rule="evenodd" clip-rule="evenodd" d="M400.988 229.104C370.668 229.104 341.646 234.792 319.267 245.122C294.215 256.685 279.846 273.109 279.846 290.183C279.846 300.7 285.257 311.078 295.494 320.195C298.03 322.453 300.071 325.134 301.563 328.165C303.287 331.669 304.162 335.393 304.162 339.232C304.162 349.92 297.367 359.496 287.253 363.06C254.61 374.564 235.888 390.681 235.888 407.278C235.888 421.503 251.792 433.586 261.272 439.521C266.437 442.756 269.52 448.348 269.52 454.479C269.52 462.262 264.326 469.232 256.889 471.431C235.079 477.88 184.351 496.393 184.351 528.92C184.351 559.235 235.167 586.759 313.811 599.039C336.642 602.604 360.884 604.725 385.864 605.342C391.018 605.47 396.17 605.535 401.177 605.535C407.449 605.535 413.894 605.434 420.336 605.233C445.253 604.461 469.36 602.191 491.991 598.489C568.541 585.964 618.004 558.656 618.004 528.92C618.004 496.392 567.275 477.88 545.466 471.431C538.029 469.232 532.836 462.262 532.836 454.479C532.836 448.348 535.919 442.756 541.083 439.521C550.563 433.585 566.468 421.502 566.468 407.278C566.468 390.681 547.746 374.564 515.102 363.06C504.988 359.495 498.193 349.919 498.194 339.232C498.194 332.039 501.353 325.1 506.86 320.195C517.098 311.078 522.509 300.7 522.509 290.183C522.509 256.504 468.165 229.104 401.367 229.104H400.988ZM401.177 606.535C396.162 606.535 391.002 606.47 385.84 606.342C360.816 605.724 336.53 603.6 313.657 600.027C234.499 587.666 183.351 559.755 183.351 528.92C183.351 495.719 234.58 476.985 256.606 470.472C263.621 468.398 268.52 461.822 268.52 454.479C268.52 448.694 265.612 443.419 260.742 440.369C251.086 434.323 234.888 421.985 234.888 407.278C234.888 389.98 253.367 373.942 286.921 362.117C296.635 358.693 303.162 349.497 303.162 339.232C303.162 335.547 302.322 331.972 300.665 328.606C299.231 325.692 297.267 323.113 294.829 320.942C284.373 311.629 278.846 300.993 278.846 290.183C278.846 272.703 293.426 255.947 318.848 244.213C341.356 233.825 370.527 228.104 400.988 228.104H401.367C468.717 228.104 523.509 255.953 523.509 290.183C523.509 300.994 517.982 311.63 507.526 320.942C502.231 325.658 499.194 332.324 499.194 339.232C499.193 349.496 505.719 358.693 515.434 362.117C548.988 373.942 567.468 389.981 567.468 407.278C567.468 421.984 551.269 434.323 541.614 440.369C536.743 443.419 533.836 448.694 533.836 454.479C533.836 461.822 538.734 468.398 545.749 470.472C567.774 476.984 619.004 495.718 619.004 528.92C619.004 544.138 606.731 558.849 583.512 571.464C561.005 583.692 529.414 593.379 492.153 599.476C469.479 603.186 445.327 605.459 420.367 606.233C413.916 606.434 407.459 606.535 401.177 606.535V606.535Z" fill="#350E27" blush:i="0.0.0.0.1.0"/></g><path id="Fill 6" fill-rule="evenodd" clip-rule="evenodd" d="M339.146 348.093C328.632 348.093 320.078 339.539 320.078 329.025V306.667H321.078V329.025C321.078 338.988 329.183 347.093 339.146 347.093C349.109 347.093 357.214 338.988 357.214 329.025V306.667H358.214V329.025C358.214 339.539 349.66 348.093 339.146 348.093" fill="#350E27" blush:i="0.0.0.0.2"/><path id="Fill 8" fill-rule="evenodd" clip-rule="evenodd" d="M406.146 348.093C395.632 348.093 387.078 339.539 387.078 329.025V306.667H388.078V329.025C388.078 338.988 396.183 347.093 406.146 347.093C416.109 347.093 424.214 338.988 424.214 329.025V306.667H425.214V329.025C425.214 339.539 416.661 348.093 406.146 348.093" fill="#350E27" blush:i="0.0.0.0.3"/><path id="Fill 10" fill-rule="evenodd" clip-rule="evenodd" d="M552.566 536.394C554.236 536.6 555.274 539.223 557.086 539.716C558.549 540.114 560.106 539.746 561.308 538.872C563.227 537.476 563.425 535.548 565.766 537.588C567.224 538.859 567.981 539.631 569.998 539.88C572.387 540.175 572.366 536.423 569.998 536.13C568.326 535.924 567.288 533.301 565.474 532.809C564.01 532.411 562.454 532.78 561.252 533.653C559.334 535.047 559.134 536.976 556.795 534.937C555.338 533.665 554.582 532.893 552.566 532.644C550.176 532.349 550.198 536.101 552.566 536.394" fill="#350E27" blush:i="0.0.0.0.4"/><path id="Fill 12" fill-rule="evenodd" clip-rule="evenodd" d="M457.147 531.552C458.596 532.747 458.288 534.838 459.469 536.301C460.356 537.399 461.648 538.149 463.068 538.282C464.887 538.452 466.857 537.118 467.826 539.376C468.549 541.063 468.505 542.348 470.053 543.623C471.902 545.148 474.57 542.509 472.705 540.972C471.255 539.777 471.563 537.685 470.38 536.221C469.494 535.123 468.201 534.373 466.781 534.24C464.962 534.07 462.992 535.404 462.025 533.147C461.301 531.46 461.346 530.177 459.798 528.901C457.951 527.377 455.283 530.015 457.147 531.552" fill="#350E27" blush:i="0.0.0.0.5"/><path id="Fill 14" fill-rule="evenodd" clip-rule="evenodd" d="M509.627 482.527C511.076 483.722 510.768 485.813 511.949 487.276C512.836 488.374 514.128 489.124 515.548 489.257C517.367 489.427 519.337 488.093 520.306 490.351C521.029 492.038 520.985 493.323 522.533 494.598C524.382 496.123 527.049 493.484 525.185 491.947C523.734 490.752 524.042 488.66 522.859 487.196C521.973 486.098 520.681 485.348 519.261 485.215C517.442 485.045 515.472 486.379 514.504 484.122C513.781 482.435 513.826 481.152 512.278 479.876C510.431 478.352 507.763 480.99 509.627 482.527" fill="#350E27" blush:i="0.0.0.0.6"/><path id="Fill 16" fill-rule="evenodd" clip-rule="evenodd" d="M510.988 553.568C510.562 555.398 508.102 555.994 507.295 557.754C506.695 559.062 506.717 560.589 507.321 561.892C508.242 563.88 510.489 564.422 508.588 566.708C507.392 568.146 506.169 568.496 505.695 570.535C505.149 572.882 508.764 573.885 509.311 571.532C509.737 569.7 512.197 569.103 513.005 567.343C513.604 566.034 513.584 564.506 512.979 563.203C512.057 561.216 509.811 560.674 511.712 558.389C512.907 556.952 514.131 556.603 514.604 554.565C515.15 552.216 511.535 551.214 510.988 553.568" fill="#350E27" blush:i="0.0.0.0.7"/><path id="Fill 18" fill-rule="evenodd" clip-rule="evenodd" d="M455.55 477.446C457.304 476.769 458.956 478.083 460.809 477.814C462.21 477.611 463.478 476.84 464.301 475.679C465.434 474.081 465.13 471.567 467.763 471.865C469.536 472.066 470.536 472.681 472.382 471.968C474.611 471.108 473.642 467.481 471.386 468.352C469.631 469.03 467.978 467.717 466.124 467.986C464.723 468.19 463.454 468.961 462.632 470.122C461.498 471.719 461.802 474.233 459.171 473.934C457.399 473.733 456.399 473.118 454.554 473.831C452.325 474.69 453.293 478.318 455.55 477.446" fill="#350E27" blush:i="0.0.0.0.8"/><path id="Fill 20" fill-rule="evenodd" clip-rule="evenodd" d="M404.864 576.832C405.402 575.418 407.851 574.995 408.786 573.728C409.819 572.326 410.002 570.505 409.373 568.902C408.572 566.86 406.868 565.916 409.308 564.326C410.885 563.298 411.838 562.656 412.537 560.82C413.396 558.562 409.772 557.587 408.921 559.823C408.382 561.239 405.932 561.662 404.998 562.931C403.965 564.332 403.782 566.154 404.41 567.757C405.211 569.798 406.916 570.742 404.475 572.331C402.899 573.358 401.946 574 401.248 575.835C400.388 578.093 404.012 579.068 404.864 576.832" fill="#350E27" blush:i="0.0.0.0.9"/><path id="Fill 22" fill-rule="evenodd" clip-rule="evenodd" d="M331.689 523.803C330.6 522.211 331.238 520.381 330.526 518.664C329.972 517.326 328.885 516.211 327.567 515.614C325.407 514.633 323.616 515.478 322.941 512.304C322.591 510.654 322.753 509.651 321.72 508.14C320.365 506.16 317.114 508.033 318.481 510.032C319.572 511.626 318.934 513.457 319.647 515.175C320.202 516.512 321.288 517.628 322.606 518.226C324.765 519.205 326.557 518.362 327.231 521.534C327.581 523.184 327.418 524.186 328.451 525.696C329.805 527.676 333.056 525.802 331.689 523.803" fill="#350E27" blush:i="0.0.0.0.10"/><path id="Fill 24" fill-rule="evenodd" clip-rule="evenodd" d="M296.786 393.336C297.266 391.645 299.664 391.142 300.638 389.681C301.619 388.21 301.708 386.31 300.976 384.727C300.011 382.636 297.857 381.714 300.243 379.669C301.715 378.406 302.828 377.837 303.397 375.83C304.057 373.504 300.439 372.511 299.781 374.833C299.301 376.526 296.903 377.029 295.929 378.491C294.948 379.963 294.858 381.863 295.59 383.447C296.555 385.537 298.708 386.459 296.324 388.502C294.851 389.764 293.74 390.332 293.17 392.339C292.51 394.665 296.127 395.658 296.786 393.336" fill="#350E27" blush:i="0.0.0.0.11"/><path id="Fill 26" fill-rule="evenodd" clip-rule="evenodd" d="M319.121 283.42C320.474 282.285 322.596 282.702 324.102 281.772C325.302 281.03 326.307 279.745 326.698 278.39C327.461 275.743 326.51 274.608 330.059 273.712C331.566 273.332 332.466 272.987 333.701 271.95C335.551 270.396 332.887 267.755 331.049 269.298C329.696 270.435 327.573 270.018 326.065 270.949C324.866 271.691 323.861 272.976 323.47 274.331C322.706 276.977 323.658 278.112 320.11 279.007C318.603 279.387 317.704 279.732 316.47 280.769C314.619 282.322 317.284 284.963 319.121 283.42" fill="#350E27" blush:i="0.0.0.0.12"/><path id="Fill 28" fill-rule="evenodd" clip-rule="evenodd" d="M426.783 268.464C427.874 267.242 429.787 267.531 431.117 266.528C432.199 265.711 432.907 264.492 433.085 263.149C433.298 261.529 432.244 259.88 434.245 259.095C435.824 258.476 436.986 258.502 438.216 257.125C439.818 255.33 437.175 252.669 435.563 254.473C434.472 255.696 432.559 255.408 431.228 256.412C430.146 257.229 429.437 258.448 429.261 259.792C429.047 261.41 430.1 263.06 428.101 263.844C426.522 264.463 425.36 264.436 424.132 265.812C422.529 267.608 425.173 270.269 426.783 268.464" fill="#350E27" blush:i="0.0.0.0.13"/><path id="Fill 30" fill-rule="evenodd" clip-rule="evenodd" d="M388.442 295.443C386.4 295.084 385.712 292.604 383.794 291.802C382.433 291.234 380.862 291.296 379.54 291.961C377.501 292.986 376.91 295.576 374.378 293.693C372.83 292.542 372.436 291.219 370.294 290.843C367.934 290.429 366.921 294.042 369.297 294.459C371.341 294.818 372.029 297.298 373.949 298.1C375.31 298.668 376.88 298.607 378.203 297.942C380.241 296.917 380.832 294.327 383.363 296.21C384.91 297.361 385.304 298.683 387.445 299.059C389.805 299.474 390.818 295.86 388.442 295.443" fill="#350E27" blush:i="0.0.0.0.14"/><path id="Fill 32" fill-rule="evenodd" clip-rule="evenodd" d="M465.783 369.609C463.741 369.25 463.054 366.77 461.135 365.968C459.774 365.4 458.204 365.462 456.881 366.127C454.842 367.152 454.252 369.742 451.719 367.859C450.172 366.708 449.777 365.385 447.635 365.009C445.275 364.595 444.262 368.208 446.638 368.625C448.682 368.984 449.37 371.464 451.29 372.266C452.651 372.834 454.221 372.773 455.545 372.108C457.583 371.083 458.174 368.492 460.705 370.376C462.251 371.526 462.645 372.849 464.786 373.225C467.146 373.639 468.159 370.026 465.783 369.609" fill="#350E27" blush:i="0.0.0.0.15"/><path id="Fill 34" fill-rule="evenodd" clip-rule="evenodd" d="M258.693 561.317C260.683 561.266 261.926 563.621 263.94 563.969C265.397 564.221 266.908 563.804 268.048 562.87C269.86 561.384 269.839 558.912 272.767 560.325C274.528 561.175 275.21 562.278 277.386 562.223C279.795 562.162 279.804 558.412 277.386 558.473C275.395 558.523 274.151 556.17 272.136 555.822C270.679 555.57 269.168 555.986 268.027 556.921C266.215 558.406 266.237 560.878 263.31 559.465C261.55 558.615 260.869 557.512 258.693 557.567C256.284 557.628 256.275 561.378 258.693 561.317" fill="#350E27" blush:i="0.0.0.0.16"/><path id="Fill 36" fill-rule="evenodd" clip-rule="evenodd" d="M326.109 578.181C328.098 578.131 329.342 580.485 331.356 580.833C332.813 581.085 334.323 580.669 335.464 579.734C337.276 578.248 337.255 575.777 340.183 577.19C341.944 578.039 342.625 579.143 344.802 579.087C347.211 579.027 347.22 575.277 344.802 575.337C342.811 575.388 341.567 573.034 339.552 572.686C338.095 572.434 336.584 572.85 335.443 573.785C333.631 575.27 333.652 577.743 330.726 576.329C328.966 575.48 328.285 574.376 326.109 574.431C323.7 574.492 323.691 578.243 326.109 578.181" fill="#350E27" blush:i="0.0.0.0.17"/><path id="Fill 38" fill-rule="evenodd" clip-rule="evenodd" d="M207.967 516.511C208.194 518.563 206.1 519.89 205.855 521.95C205.681 523.41 206.148 524.9 207.137 526C208.592 527.621 211.174 527.565 210.378 530.294C209.821 532.207 208.416 532.909 208.67 535.201C208.932 537.573 212.685 537.601 212.42 535.201C212.193 533.148 214.286 531.82 214.531 529.759C214.705 528.298 214.238 526.809 213.249 525.707C211.794 524.088 209.212 524.143 210.009 521.415C210.566 519.503 211.97 518.802 211.717 516.511C211.455 514.138 207.702 514.112 207.967 516.511" fill="#350E27" blush:i="0.0.0.0.18"/><path id="Fill 40" fill-rule="evenodd" clip-rule="evenodd" d="M393.617 506.922C392.784 508.341 390.621 508.303 389.416 509.408C388.154 510.566 387.592 512.329 387.852 513.999C388.174 516.062 389.706 517.331 387.25 518.608C385.624 519.453 384.473 519.758 383.479 521.452C382.254 523.537 385.494 525.427 386.717 523.345C387.551 521.924 389.713 521.962 390.919 520.856C392.181 519.698 392.744 517.935 392.483 516.264C392.162 514.203 390.63 512.933 393.085 511.657C394.71 510.813 395.861 510.508 396.855 508.815C398.079 506.73 394.84 504.84 393.617 506.922" fill="#350E27" blush:i="0.0.0.0.19"/><path id="Fill 42" fill-rule="evenodd" clip-rule="evenodd" d="M378.379 435.294C379.73 436.527 379.373 438.612 380.481 440.092C381.336 441.233 382.61 441.977 384.014 442.187C385.875 442.464 387.725 441.301 388.591 443.684C389.215 445.4 389.213 446.632 390.672 447.964C392.451 449.589 395.11 446.944 393.324 445.313C391.972 444.077 392.328 441.992 391.219 440.512C390.364 439.37 389.089 438.627 387.685 438.417C385.826 438.14 383.974 439.303 383.109 436.922C382.486 435.204 382.488 433.974 381.03 432.642C379.252 431.017 376.592 433.661 378.379 435.294" fill="#350E27" blush:i="0.0.0.0.20"/><g id="Group 46" blush:i="0.0.0.0.21"><path id="Fill 44" fill-rule="evenodd" clip-rule="evenodd" d="M540.664 62.0154C539.93 61.8694 539.428 62.7764 539.838 63.4024C545.904 72.6664 574.711 121.28 523.287 138.175V138.179C505.606 143.448 492.711 159.821 492.711 179.214C492.711 201.573 509.851 219.919 531.706 221.856L531.942 221.871C605.838 226.924 631.514 80.0564 540.664 62.0154" fill="#350E27" blush:i="0.0.0.0.21.0"/></g><path id="Fill 47" fill-rule="evenodd" clip-rule="evenodd" d="M521.484 197.322V197.322C516.144 193.024 508.374 193.656 503.799 198.762L238.698 494.661C233.946 499.545 231.209 506.399 231.843 513.885C232.838 525.62 242.308 535.129 254.039 536.163C262.564 536.915 270.283 533.299 275.212 527.302L523.487 215.393C527.904 209.844 527.009 201.769 521.484 197.322" fill="#3F88EB" blush:i="0.0.0.0.22"/><g id="Group 51" blush:i="0.0.0.0.23"><path id="Fill 49" fill-rule="evenodd" clip-rule="evenodd" d="M540.665 62.0154C539.931 61.8694 539.429 62.7764 539.839 63.4024C544.699 70.8244 564.146 103.5 545.248 124.89C548.811 126.953 552.836 127.252 556.491 126.788C561.531 126.149 566.494 128.713 568.838 133.221C571.934 139.173 579.231 142.312 586.38 140.309C590.551 139.14 595.036 140.761 597.687 144.186C597.924 144.492 598.18 144.792 598.446 145.09C600.672 108.38 583.89 70.5984 540.665 62.0154" fill="#F9751C" blush:i="0.0.0.0.23.0"/></g><path id="Fill 52" fill-rule="evenodd" clip-rule="evenodd" d="M275.588 527.63L274.816 526.995C278.337 522.714 280.276 517.3 280.276 511.75C280.276 498.51 269.505 487.737 256.264 487.737C249.759 487.737 243.668 490.298 239.113 494.946L238.325 494.328L238.399 494.247C243.144 489.404 249.488 486.737 256.264 486.737C270.056 486.737 281.276 497.958 281.276 511.75C281.276 517.531 279.256 523.171 275.588 527.63" fill="#350E27" blush:i="0.0.0.0.24"/><path id="Fill 54" fill-rule="evenodd" clip-rule="evenodd" d="M506.372 194.692C499.265 180.089 504.973 167.148 505.031 167.019L505.941 167.432C505.886 167.557 500.376 180.089 507.27 194.255L506.372 194.692Z" fill="white" blush:i="0.0.0.0.25"/><path id="Fill 56" fill-rule="evenodd" clip-rule="evenodd" d="M534.871 212.5C533.845 212.5 532.818 212.441 531.797 212.323C530.21 212.141 528.604 211.812 527.025 211.346L527.309 210.387C528.832 210.836 530.381 211.154 531.912 211.33C533.8 211.548 535.71 211.555 537.59 211.356C539.47 211.156 541.364 210.744 543.22 210.129C551.116 207.511 556.031 202.002 556.08 201.946L556.83 202.607C556.624 202.841 551.685 208.376 543.534 211.078C541.611 211.715 539.646 212.143 537.695 212.35C536.759 212.45 535.815 212.5 534.871 212.5" fill="white" blush:i="0.0.0.0.26"/><path id="Fill 58" fill-rule="evenodd" clip-rule="evenodd" d="M509.577 193.941C507.612 189.271 507.845 183.705 507.856 183.471L508.854 183.517C508.852 183.572 508.624 189.096 510.499 193.553L509.577 193.941Z" fill="white" blush:i="0.0.0.0.27"/><path id="Fill 60" fill-rule="evenodd" clip-rule="evenodd" d="M534.074 208.527C532.283 208.527 530.149 208.323 527.744 207.726L527.986 206.755C535.022 208.506 539.735 206.693 539.783 206.674L540.153 207.603C540.016 207.657 537.777 208.527 534.074 208.527" fill="white" blush:i="0.0.0.0.28"/><path id="Fill 62" fill-rule="evenodd" clip-rule="evenodd" d="M519.209 194.605C518.208 190.949 519.164 186.88 519.205 186.709L520.178 186.942C520.168 186.981 519.242 190.937 520.174 194.341L519.209 194.605Z" fill="white" blush:i="0.0.0.0.29"/><path id="Fill 64" fill-rule="evenodd" clip-rule="evenodd" d="M526.053 200.764L525.662 199.844C528.916 198.46 531.437 195.282 531.461 195.25L532.248 195.868C532.139 196.006 529.541 199.281 526.053 200.764" fill="white" blush:i="0.0.0.0.30"/><path id="Fill 66" fill-rule="evenodd" clip-rule="evenodd" d="M584.936 114.049C584.919 113.942 583.187 103.184 575.127 92.4577L575.926 91.8577C584.144 102.794 585.908 113.787 585.924 113.897L584.936 114.049Z" fill="#350E27" blush:i="0.0.0.0.31"/><path id="Fill 68" fill-rule="evenodd" clip-rule="evenodd" d="M581.397 126.666C581.392 122.377 580.871 118.148 579.846 114.095L580.815 113.85C581.86 117.982 582.392 122.294 582.397 126.665L581.397 126.666Z" fill="#350E27" blush:i="0.0.0.0.32"/><path id="Fill 70" fill-rule="evenodd" clip-rule="evenodd" d="M592.655 130.48L591.657 130.424C591.664 130.291 592.322 116.942 585.545 103.773L586.433 103.315C593.341 116.735 592.663 130.344 592.655 130.48" fill="#350E27" blush:i="0.0.0.0.33"/><path id="Fill 72" fill-rule="evenodd" clip-rule="evenodd" d="M400.988 228.604C372.992 228.604 347.219 233.4 326.662 241.446C331.786 264.356 352.229 281.483 376.684 281.483C405.002 281.483 427.957 258.527 427.957 230.21V230.084C419.397 229.118 410.502 228.604 401.367 228.604H400.988Z" fill="white" blush:i="0.0.0.0.34"/><path id="Fill 74" fill-rule="evenodd" clip-rule="evenodd" d="M327.245 241.755C332.541 264.51 353.264 280.983 376.683 280.983C404.572 280.983 427.281 258.379 427.455 230.531C418.915 229.584 410.14 229.104 401.366 229.104H400.987C374.058 229.104 348.571 233.477 327.245 241.755M376.683 281.983C352.655 281.983 331.413 264.98 326.174 241.555L326.08 241.137L326.479 240.98C348.001 232.556 373.766 228.104 400.987 228.104H401.366C410.33 228.104 419.295 228.603 428.012 229.587L428.456 229.637V230.21C428.456 258.757 405.231 281.983 376.683 281.983" fill="#350E27" blush:i="0.0.0.0.35"/><path id="Fill 76" fill-rule="evenodd" clip-rule="evenodd" d="M468.575 353.001L482.23 396.59L429.126 373.464C433.112 360.273 422.48 350.313 431.579 338.847C433.364 336.596 432.938 333.318 430.588 331.666C429.078 330.605 427.084 330.437 425.46 331.315C413.807 337.619 411.302 354.17 411.302 354.17C407.042 350.337 399.615 351.534 399.615 351.534C398.407 343.87 390.167 341.847 390.167 341.847C390.933 332.337 385.876 324.432 385.876 324.432C386.85 325.462 387.873 326.322 388.876 327.037L396.73 318.27C394.241 314.984 390.342 311.707 384.366 310.524C360.193 305.744 328.452 343.719 354.991 386.57C373.973 417.222 413.022 402.745 413.022 402.745C487.436 473.416 558.298 497.558 532.12 344.876L468.575 353.001Z" fill="#bb6162" blush:color="Skin-500" blush:i="0.0.0.0.36"/><path id="Fill 78" fill-rule="evenodd" clip-rule="evenodd" d="M532.613 344.792L532.532 344.32L467.92 352.581L481.425 395.695L429.729 373.182C431.314 367.534 430.324 362.529 429.365 357.686C428.123 351.412 426.95 345.486 431.97 339.158C432.92 337.961 433.34 336.415 433.123 334.915C432.906 333.423 432.108 332.124 430.875 331.257C429.196 330.077 426.978 329.927 425.221 330.875C414.872 336.475 411.647 349.723 410.959 353.246C407.156 350.428 401.685 350.787 400.023 350.977C398.713 344.442 392.374 342.015 390.695 341.481C391.094 335.267 389.125 329.829 387.691 326.771C387.982 327.002 388.28 327.227 388.586 327.444L389.166 326.63C388.119 325.884 387.154 325.044 386.291 324.139C385.968 323.448 383.855 319.313 378.465 316.727L378.032 317.628C383.45 320.228 385.398 324.588 385.417 324.631L385.704 324.507L385.454 324.702C385.504 324.78 390.404 332.56 389.669 341.784C389.168 344.727 387.697 346.517 387.682 346.535L388.448 347.178C388.512 347.103 389.918 345.377 390.541 342.482C392.272 343.049 398.139 345.409 399.119 351.606C399.619 355.086 399.054 356.775 399.049 356.789L399.99 357.126C400.016 357.054 400.578 355.374 400.168 351.971C401.82 351.796 407.532 351.451 410.967 354.542L411.657 355.164L411.772 354.404C413.057 353.011 416.29 353.346 416.323 353.351L416.434 352.357C416.304 352.342 413.825 352.081 412.043 352.981C412.901 349.033 416.248 336.868 425.698 331.755C427.121 330.985 428.928 331.111 430.3 332.076C431.305 332.782 431.957 333.842 432.133 335.059C432.311 336.287 431.967 337.555 431.187 338.537C425.879 345.226 427.095 351.373 428.383 357.88C429.342 362.723 430.334 367.73 428.649 373.312C426.417 379.92 420.19 385.807 420.128 385.866L420.811 386.595C421.068 386.355 426.969 380.765 429.409 374.133L482.025 397.047L496.112 403.384L496.522 402.472L482.64 396.227L469.23 353.422L531.708 345.433C542.25 407.247 537.605 443.929 517.9 454.452C497.464 465.365 460.54 447.05 413.901 402.884C414.782 402.45 416.496 401.452 417.78 399.742L416.981 399.142C415.394 401.253 412.991 402.2 412.967 402.21L412.975 402.23L412.848 402.276C412.463 402.42 373.967 416.266 355.416 386.308C349.051 376.031 345.72 365.3 345.446 355.024C346.957 366.028 352.45 378.709 363.388 383.328L363.777 382.407C349.754 376.485 344.985 356.749 346.178 345.275L346.139 345.271C347.288 338.58 349.836 332.231 353.8 326.508C354.402 325.639 355.033 324.813 355.678 324.007C353.726 328.804 353.357 335.172 354.669 342.485C357.089 355.981 364.496 369.437 371.897 373.784L372.404 372.921C365.346 368.776 357.988 355.33 355.653 342.309C353.954 332.839 355.122 325.049 358.942 320.372L358.939 320.37C362.732 316.607 367.008 313.838 371.405 312.23C369.847 313.694 368.579 315.808 367.715 318.514C364.094 329.863 367.447 349.704 380.794 364.122L381.528 363.442C368.914 349.815 365.084 330.052 368.668 318.818C370.057 314.465 372.49 311.719 375.519 311.085L375.517 311.078C378.467 310.503 381.42 310.452 384.269 311.016C389.215 311.994 393.273 314.536 396.332 318.572L397.129 317.968C393.918 313.731 389.656 311.062 384.463 310.034C373.523 307.874 361.168 314.114 352.978 325.938C341.035 343.181 341.629 365.945 354.565 386.834C372.668 416.064 409.222 404.567 412.899 403.317C451.052 439.508 482.867 458.509 504.685 458.509C509.815 458.509 514.393 457.458 518.371 455.334C538.55 444.558 543.342 407.366 532.613 344.792" fill="#350E27" blush:i="0.0.0.0.37"/><path id="Fill 80" fill-rule="evenodd" clip-rule="evenodd" d="M547.444 342.917L539.757 300.462C535.219 275.397 511.848 258.276 486.581 261.506C461.314 264.737 443.003 287.188 444.917 312.588L448.159 355.611L468.575 353.001L532.12 344.876L547.444 342.917Z" fill="white" blush:i="0.0.0.0.38"/><path id="Fill 82" fill-rule="evenodd" clip-rule="evenodd" d="M492.71 261.615C490.706 261.615 488.683 261.742 486.645 262.003C461.631 265.201 443.521 287.404 445.416 312.551L448.618 355.048L546.858 342.488L539.266 300.552C535.139 277.759 515.3 261.615 492.71 261.615V261.615ZM447.7 356.174L444.418 312.626C442.483 286.948 460.976 264.276 486.518 261.011C512.064 257.745 535.662 275.035 540.25 300.374L548.03 343.346L447.7 356.174Z" fill="#350E27" blush:i="0.0.0.0.39"/><path id="Fill 84" fill-rule="evenodd" clip-rule="evenodd" d="M340.735 452.561C340.374 450.55 339.773 448.769 339.011 447.194L332.213 455.691C332.213 455.691 326.098 444.32 309.519 446.214C309.519 446.214 307.64 437.941 299.998 436.598C299.998 436.598 301.324 429.193 297.567 424.867C297.567 424.867 314.159 422.651 320.666 411.11C321.572 409.502 321.44 407.506 320.404 405.977C318.794 403.598 315.524 403.115 313.242 404.861C301.618 413.758 291.846 402.953 278.588 406.709L251.809 342.793L259.596 338.717L220.642 274.135C149.756 306.666 184.81 352.265 249.03 422.298C249.03 422.298 233.872 461.087 264.188 480.604C306.568 507.886 345.093 476.814 340.735 452.561" fill="#bb6162" blush:color="Skin-500" blush:i="0.0.0.0.40"/><path id="Fill 86" fill-rule="evenodd" clip-rule="evenodd" d="M341.227 452.472C340.877 450.525 340.283 448.676 339.461 446.976L338.56 447.411C339.343 449.03 339.909 450.791 340.243 452.65C340.756 455.508 340.653 458.459 340.027 461.399L340.02 461.397C339.333 464.414 336.545 466.799 332.169 468.112C320.873 471.499 301.18 467.324 287.776 454.474L287.083 455.197C298.005 465.666 312.244 470.267 323.426 470.267C326.765 470.267 329.832 469.856 332.456 469.07C335.177 468.253 337.313 467.022 338.803 465.49C337.119 469.859 334.276 474.085 330.447 477.813L330.445 477.81C325.703 481.547 317.892 482.579 308.455 480.714C295.477 478.152 282.16 470.56 278.139 463.431L277.268 463.923C281.485 471.399 294.81 479.039 308.261 481.696C311.388 482.313 314.344 482.618 317.084 482.618C320.738 482.618 324.001 482.072 326.763 481.001C325.943 481.635 325.103 482.254 324.221 482.843C318.429 486.706 312.036 489.144 305.326 490.175L305.323 490.136C293.823 491.124 274.18 486.016 268.504 471.891L267.576 472.264C272.004 483.284 284.591 488.996 295.568 490.698C285.297 490.245 274.623 486.728 264.458 480.184C234.841 461.117 249.346 422.864 249.496 422.48L249.545 422.354L249.564 422.362C249.574 422.338 250.554 419.959 252.702 418.403L252.115 417.594C250.381 418.849 249.352 420.548 248.904 421.42C207.836 376.612 176.957 340.061 182.683 311.701C185.6 297.255 197.954 285.174 220.444 274.776L258.893 338.52L252.059 342.097L246.246 328.286L245.324 328.674L251.311 342.901L277.922 406.415C271.249 408.737 265.558 414.54 265.313 414.792L266.031 415.489C266.091 415.427 272.08 409.305 278.733 407.187C284.343 405.602 289.332 406.68 294.157 407.723C300.642 409.124 306.766 410.448 313.545 405.258C314.54 404.496 315.812 404.172 317.039 404.372C318.253 404.57 319.301 405.239 319.99 406.257C320.931 407.646 321.025 409.455 320.23 410.865C314.957 420.216 302.732 423.355 298.769 424.146C299.7 422.379 299.482 419.896 299.469 419.766L298.474 419.861C298.561 420.783 298.513 423.343 297.331 424.394L296.581 424.494L297.189 425.195C300.221 428.685 299.776 434.389 299.572 436.037C296.175 435.566 294.486 436.098 294.414 436.124L294.732 437.073C294.748 437.067 296.445 436.534 299.912 437.09C306.083 438.175 308.35 444.087 308.89 445.829C305.985 446.402 304.236 447.777 304.159 447.839L304.789 448.616C304.807 448.601 306.625 447.16 309.581 446.71C325.606 444.886 331.713 455.817 331.772 455.928L332.206 455.695L331.803 455.978C331.814 455.993 332.896 457.557 333.085 459.325L334.079 459.219C333.868 457.236 332.735 455.568 332.635 455.422C332.285 454.805 325.906 444.042 309.888 445.671C309.37 443.951 307.046 437.618 300.563 436.2C300.781 434.54 301.236 429.076 298.485 425.226C302.019 424.599 315.322 421.606 321.102 411.356C322.081 409.618 321.97 407.397 320.818 405.697C319.973 404.448 318.688 403.627 317.199 403.386C315.704 403.141 314.151 403.536 312.938 404.464C306.523 409.373 300.619 408.097 294.369 406.745C289.541 405.702 284.555 404.623 278.879 406.111L252.447 343.023L260.298 338.914L221.07 273.877L220.839 273.494L220.433 273.68C197.373 284.263 184.705 296.635 181.703 311.503C175.871 340.392 207.046 377.244 248.455 422.411C247.141 426.066 235.006 462.412 263.917 481.025C275.001 488.16 286.685 491.751 297.831 491.751C307.461 491.751 316.688 489.07 324.775 483.674C336.741 475.693 343.199 463.445 341.227 452.472" fill="#350E27" blush:i="0.0.0.0.41"/><path id="Fill 88" fill-rule="evenodd" clip-rule="evenodd" d="M295.161 320.568C285.095 311.603 279.346 301.233 279.346 290.183C279.346 272.151 294.658 255.929 319.058 244.667C259.286 232.924 216.188 266.751 216.188 266.751L220.641 274.135L259.597 338.717L264.188 346.33L301.114 328.385C299.671 325.454 297.659 322.793 295.161 320.568" fill="white" blush:i="0.0.0.0.42"/><path id="Fill 90" fill-rule="evenodd" clip-rule="evenodd" d="M216.848 266.879L264.379 345.681L300.438 328.157C299.026 325.426 297.14 323.001 294.828 320.942C284.371 311.629 278.845 300.992 278.845 290.183C278.845 273.025 292.89 256.567 317.447 244.87C262.179 234.682 221.056 263.76 216.848 266.879V266.879ZM263.994 346.98L215.53 266.631L215.878 266.358C216.311 266.018 259.84 232.524 319.153 244.176L320.668 244.474L319.266 245.121C294.213 256.685 279.845 273.109 279.845 290.183C279.845 300.699 285.256 311.077 295.493 320.194C298.028 322.452 300.07 325.134 301.561 328.164L301.783 328.615L263.994 346.98Z" fill="#350E27" blush:i="0.0.0.0.43"/><path id="Fill 92" fill-rule="evenodd" clip-rule="evenodd" d="M439.757 680.12H447.541H472.788H477.652L492.072 598.982C469.923 602.606 445.766 604.945 420.352 605.733L439.757 680.12Z" fill="#3F88EB" blush:i="0.0.0.0.44"/><path id="Fill 94" fill-rule="evenodd" clip-rule="evenodd" d="M477.231 679.62H468.085L468.35 675.158L467.352 675.099L467.085 679.62H440.142L420.992 606.214C438.356 605.657 455.314 604.36 471.665 602.373L471.403 606.78L472.401 606.839L472.672 602.253C479.03 601.468 485.301 600.587 491.456 599.589L477.231 679.62ZM491.99 598.489C469.359 602.191 445.251 604.461 420.335 605.233L419.709 605.253L439.272 680.246L439.369 680.62H478.069L492.563 599.07L492.687 598.375L491.99 598.489Z" fill="#350E27" blush:i="0.0.0.0.45"/><path id="Fill 96" fill-rule="evenodd" clip-rule="evenodd" d="M467.932 665.34L468.93 665.399L469.509 655.639L468.511 655.58L467.932 665.34Z" fill="#350E27" blush:i="0.0.0.0.46"/><path id="Fill 98" fill-rule="evenodd" clip-rule="evenodd" d="M469.09 645.82L470.088 645.879L470.667 636.119L469.669 636.06L469.09 645.82Z" fill="#350E27" blush:i="0.0.0.0.47"/><path id="Fill 100" fill-rule="evenodd" clip-rule="evenodd" d="M470.246 626.301L471.244 626.36L471.823 616.599L470.825 616.54L470.246 626.301Z" fill="#350E27" blush:i="0.0.0.0.48"/><path id="Fill 102" fill-rule="evenodd" clip-rule="evenodd" d="M444.559 694.529C444.628 698.993 449.725 701.496 453.267 698.777C459.095 694.303 467.169 687.457 472.787 680.12H447.539C445.127 685.173 444.495 690.313 444.559 694.529" fill="#350E27" blush:i="0.0.0.0.49"/><path id="Fill 104" fill-rule="evenodd" clip-rule="evenodd" d="M445.744 685.388H455.926V684.388H445.744V685.388Z" fill="white" blush:i="0.0.0.0.50"/><path id="Fill 106" fill-rule="evenodd" clip-rule="evenodd" d="M444.865 689.131H451.497V688.131H444.865V689.131Z" fill="white" blush:i="0.0.0.0.51"/><path id="Fill 107" fill-rule="evenodd" clip-rule="evenodd" d="M334.756 680.12H342.541H367.787H372.651L385.852 605.842C360.347 605.212 336.059 603.019 313.734 599.533L334.756 680.12Z" fill="#3F88EB" blush:i="0.0.0.0.52"/><path id="Fill 108" fill-rule="evenodd" clip-rule="evenodd" d="M372.231 679.62H362.354L362.565 675.148L361.566 675.101L361.353 679.62H335.142L314.409 600.144C330.596 602.646 347.493 604.412 364.846 605.447L364.633 609.96L365.632 610.007L365.844 605.511C372.258 605.882 378.73 606.16 385.257 606.327L372.231 679.62ZM385.863 605.342C360.883 604.724 336.641 602.604 313.81 599.039L313.057 598.922L334.369 680.62H373.069L386.445 605.356L385.863 605.342Z" fill="#350E27" blush:i="0.0.0.0.53"/><path id="Fill 109" fill-rule="evenodd" clip-rule="evenodd" d="M362.004 665.796L363.003 665.843L363.441 656.537L362.442 656.49L362.004 665.796Z" fill="#350E27" blush:i="0.0.0.0.54"/><path id="Fill 110" fill-rule="evenodd" clip-rule="evenodd" d="M363.758 628.571L364.757 628.618L365.195 619.312L364.196 619.265L363.758 628.571Z" fill="#350E27" blush:i="0.0.0.0.55"/><path id="Fill 111" fill-rule="evenodd" clip-rule="evenodd" d="M362.881 647.183L363.88 647.23L364.318 637.924L363.319 637.877L362.881 647.183Z" fill="#350E27" blush:i="0.0.0.0.56"/><path id="Fill 112" fill-rule="evenodd" clip-rule="evenodd" d="M339.559 694.529C339.628 698.993 344.725 701.496 348.267 698.777C354.095 694.303 362.169 687.457 367.786 680.12H342.539C340.127 685.173 339.494 690.313 339.559 694.529" fill="#350E27" blush:i="0.0.0.0.57"/><path id="Fill 113" fill-rule="evenodd" clip-rule="evenodd" d="M340.744 685.388H350.926V684.388H340.744V685.388Z" fill="white" blush:i="0.0.0.0.58"/><path id="Fill 114" fill-rule="evenodd" clip-rule="evenodd" d="M339.865 689.131H346.497V688.131H339.865V689.131Z" fill="white" blush:i="0.0.0.0.59"/><path id="Fill 115" fill-rule="evenodd" clip-rule="evenodd" d="M400.986 228.604C381.059 228.604 362.252 231.03 345.652 235.33C349.805 247.762 361.532 256.726 375.361 256.726C391.559 256.726 404.885 244.43 406.516 228.663C404.807 228.627 403.091 228.604 401.365 228.604H400.986Z" fill="#bb6162" blush:color="Skin-500" blush:i="0.0.0.0.60"/><path id="Fill 116" fill-rule="evenodd" clip-rule="evenodd" d="M346.303 235.679C350.653 247.992 362.263 256.226 375.363 256.226C391.031 256.226 404.09 244.625 405.961 229.152C404.436 229.122 402.906 229.104 401.367 229.104H400.988C381.739 229.104 363.344 231.316 346.303 235.679M375.363 257.226C361.653 257.226 349.524 248.491 345.18 235.488L345.01 234.98L345.529 234.846C362.799 230.372 381.458 228.104 400.988 228.104H401.367C403.097 228.104 404.816 228.127 406.529 228.163L407.071 228.175L407.015 228.715C405.335 244.969 391.727 257.226 375.363 257.226" fill="#350E27" blush:i="0.0.0.0.61"/><path id="Fill 117" fill-rule="evenodd" clip-rule="evenodd" d="M364.841 151.15C344.046 152.58 327.749 168.651 325.326 188.605C325.004 191.256 324.927 193.977 325.117 196.74C325.347 200.09 325.969 203.318 326.915 206.396C326.911 206.396 326.906 206.396 326.902 206.397C298.595 209.047 311.588 238.751 336.106 222.538C336.109 222.536 336.112 222.534 336.115 222.531C344.608 231.878 357.13 237.398 370.707 236.464C380.142 235.815 388.652 232.153 395.359 226.481C405.399 217.99 411.402 204.998 410.431 190.874C408.811 167.316 388.4 149.53 364.841 151.15" fill="#bb6162" blush:color="Skin-500" blush:i="0.0.0.0.62"/><path id="Fill 118" fill-rule="evenodd" clip-rule="evenodd" d="M410.929 190.84C409.292 167.044 388.603 149.022 364.805 150.651C344.135 152.072 327.322 168.008 324.828 188.545C324.499 191.257 324.428 194.027 324.616 196.775C324.829 199.864 325.382 202.951 326.261 205.959C317.878 206.881 312.066 210.466 310.66 215.614C309.669 219.243 311.142 223.118 314.414 225.486C319.756 229.353 327.804 228.492 336.032 223.182C344.222 232.02 355.741 237.067 367.738 237.067C367.816 237.067 367.896 237.067 367.975 237.066L367.969 236.066C367.892 236.067 367.815 236.067 367.738 236.067C359.961 236.067 352.396 233.883 345.844 229.899C345.959 229.902 346.073 229.914 346.187 229.914C346.509 229.914 346.831 229.903 347.153 229.881C353.006 229.478 357.88 225.524 359.516 219.955C361.467 221.161 363.754 221.858 366.181 221.858C366.473 221.858 366.768 221.848 367.063 221.828C369.608 221.652 372.012 220.734 374.014 219.171L373.399 218.382C371.554 219.822 369.34 220.669 366.995 220.83C360.535 221.275 354.933 216.385 354.489 209.934C354.406 208.726 354.508 207.524 354.789 206.361L353.818 206.125C353.512 207.388 353.402 208.693 353.491 210.002C353.758 213.874 355.744 217.219 358.645 219.362C357.22 224.692 352.625 228.503 347.084 228.883C346.057 228.956 345.026 228.895 344.018 228.723C341.439 226.968 339.041 224.924 336.879 222.607C337.908 221.904 338.947 221.142 339.976 220.307L339.346 219.53C338.176 220.48 336.992 221.352 335.828 222.121C327.858 227.392 320.072 228.347 315 224.676C312.024 222.522 310.731 219.151 311.625 215.878C312.949 211.031 318.668 207.675 326.953 206.894C328.683 206.732 330.552 206.674 332.503 206.729L332.53 205.729C330.694 205.681 328.94 205.736 327.287 205.872C326.395 202.871 325.826 199.791 325.615 196.706C325.43 194.021 325.499 191.315 325.821 188.665C328.257 168.605 344.681 153.037 364.874 151.649C388.125 150.046 408.332 167.663 409.931 190.908C410.85 204.278 405.282 217.434 395.034 226.099C390.292 230.11 384.86 232.965 378.89 234.585L379.152 235.55C385.264 233.891 390.825 230.968 395.68 226.863C406.169 217.993 411.869 204.527 410.929 190.84" fill="#350E27" blush:i="0.0.0.0.63"/><path id="Fill 119" fill-rule="evenodd" clip-rule="evenodd" d="M378.449 187.057L374.092 197.88L375.019 198.253L379.377 187.43L378.449 187.057Z" fill="#350E27" blush:i="0.0.0.0.64"/><path id="Fill 120" fill-rule="evenodd" clip-rule="evenodd" d="M412.794 192.84V192.84C411.562 192.841 410.538 191.889 410.463 190.659C410.304 188.029 409.907 185.352 409.251 182.646C405.539 167.338 393.338 155.314 377.99 151.766C364.961 148.755 352.611 151.707 343.12 158.429C339.842 160.751 335.435 160.404 332.597 157.562C329.032 153.99 323.886 152 318.291 152.74C310.669 153.748 304.583 159.981 303.735 167.623C302.598 177.869 310.589 186.543 320.605 186.543C329.711 186.543 337.121 179.368 337.543 170.366C339.424 174.109 348.056 188.657 368.002 187.895C368.411 186.875 368.977 185.887 369.721 184.978C373.239 180.679 379.189 179.73 383.011 182.858C386.833 185.986 387.08 192.007 383.562 196.305C381.976 198.243 379.896 199.493 377.739 200.003L393.069 227.834L413.269 227.761C422.802 227.761 430.551 220.121 430.726 210.629C430.908 200.779 422.646 192.831 412.794 192.84" fill="#3f88eb" blush:color="Hair-500" blush:i="0.0.0.0.65"/><path id="Fill 121" fill-rule="evenodd" clip-rule="evenodd" d="M413.269 227.261L393.367 227.333L378.486 200.319C380.585 199.683 382.507 198.387 383.951 196.622C387.638 192.117 387.359 185.769 383.331 182.471C379.3 179.173 373.022 180.157 369.336 184.661C368.659 185.489 368.098 186.411 367.666 187.406C348.494 187.996 340.109 174.353 337.992 170.142L337.135 168.437L337.046 170.343C336.633 179.147 329.413 186.043 320.607 186.043C315.927 186.043 311.45 184.041 308.326 180.551C305.159 177.013 303.706 172.442 304.234 167.678C305.055 160.283 310.995 154.209 318.359 153.236C323.535 152.554 328.594 154.257 332.246 157.915C335.24 160.915 339.935 161.301 343.412 158.838C353.4 151.762 365.641 149.424 377.88 152.254C392.997 155.747 405.121 167.723 408.767 182.764C409.403 185.386 409.806 188.052 409.966 190.689C410.011 191.419 410.334 192.069 410.828 192.543C407.057 192.177 404.404 189.687 402.604 184.885L401.901 185.149C403.982 190.699 407.15 193.351 411.777 193.351C412.034 193.351 412.3 193.335 412.567 193.318C412.643 193.324 412.716 193.34 412.793 193.34H412.796H412.797H412.813C417.516 193.34 422.1 195.261 425.392 198.611C428.593 201.87 430.311 206.135 430.228 210.62C430.059 219.796 422.453 227.261 413.269 227.261M426.105 197.91C422.626 194.369 417.783 192.34 412.813 192.34H412.796H412.795H412.793C411.827 192.34 411.023 191.589 410.964 190.629C410.801 187.932 410.389 185.207 409.74 182.529C406.004 167.123 393.587 154.858 378.105 151.279C365.582 148.385 353.058 150.781 342.833 158.021C339.756 160.202 335.601 159.86 332.954 157.209C329.08 153.328 323.708 151.518 318.228 152.244C310.414 153.278 304.111 159.722 303.24 167.568C302.68 172.617 304.222 177.466 307.581 181.218C310.894 184.92 315.643 187.043 320.607 187.043C329.386 187.043 336.679 180.581 337.889 172.052C340.933 177.326 349.378 188.426 366.479 188.424C366.985 188.424 367.502 188.414 368.023 188.394L368.348 188.382L368.468 188.081C368.876 187.064 369.429 186.127 370.11 185.295C373.448 181.217 379.096 180.299 382.697 183.245C386.299 186.194 386.515 191.91 383.177 195.989C381.727 197.76 379.756 199.012 377.626 199.516L376.986 199.667L392.777 228.335L413.271 228.261C422.994 228.261 431.049 220.356 431.228 210.638C431.316 205.883 429.497 201.362 426.105 197.91" fill="#350E27" blush:i="0.0.0.0.66"/><path id="Fill 122" fill-rule="evenodd" clip-rule="evenodd" d="M416.094 203.423L415.533 204.252C417.798 205.781 419.15 208.323 419.15 211.051C419.15 215.573 415.471 219.252 410.949 219.252V220.252C416.023 220.252 420.15 216.125 420.15 211.051C420.15 207.99 418.633 205.139 416.094 203.423" fill="#350E27" blush:i="0.0.0.0.67"/><path id="Fill 123" fill-rule="evenodd" clip-rule="evenodd" d="M320.052 178.546C316.358 178.546 313.352 175.54 313.352 171.846H312.352C312.352 176.092 315.806 179.546 320.052 179.546C324.298 179.546 327.752 176.092 327.752 171.846H326.752C326.752 175.54 323.746 178.546 320.052 178.546" fill="#350E27" blush:i="0.0.0.0.68"/><path id="Fill 124" fill-rule="evenodd" clip-rule="evenodd" d="M351.217 195.543C351.02 192.674 349.717 190.055 347.55 188.166C345.383 186.277 342.605 185.353 339.741 185.543C336.873 185.74 334.253 187.043 332.364 189.21C330.476 191.378 329.544 194.151 329.741 197.019C329.783 197.625 329.879 198.236 330.028 198.842L323.653 201.145C323.182 201.315 322.807 201.681 322.626 202.147C322.444 202.614 322.473 203.137 322.704 203.581C323.105 204.349 324.021 204.705 324.836 204.41L331.394 202.034C333.382 205.177 336.776 207.045 340.463 207.045C340.713 207.045 340.965 207.036 341.217 207.019C347.138 206.611 351.624 201.463 351.217 195.543" fill="#350E27" blush:i="0.0.0.0.69"/><path id="Fill 125" fill-rule="evenodd" clip-rule="evenodd" d="M348.158 195.752C347.866 191.511 344.192 188.309 339.95 188.601C335.709 188.893 332.508 192.567 332.8 196.808C333.091 201.049 336.765 204.251 341.007 203.959C345.248 203.668 348.45 199.993 348.158 195.752" fill="white" blush:i="0.0.0.0.70"/><path id="Fill 126" fill-rule="evenodd" clip-rule="evenodd" d="M336.311 198.114L335.604 197.407L341.282 191.729L341.989 192.436L336.311 198.114Z" fill="#350E27" blush:i="0.0.0.0.71"/><path id="Fill 127" fill-rule="evenodd" clip-rule="evenodd" d="M338.842 201.061L338.135 200.354L341.564 196.925L342.271 197.632L338.842 201.061Z" fill="#350E27" blush:i="0.0.0.0.72"/><path id="Fill 128" fill-rule="evenodd" clip-rule="evenodd" d="M343.453 196.514L342.746 195.807L344.136 194.417L344.843 195.124L343.453 196.514Z" fill="#350E27" blush:i="0.0.0.0.73"/></g></g></g></g></svg>